<?xml version="1.0" standalone="no"?>
<!DOCTYPE svg PUBLIC "-//W3C//DTD SVG 1.1//EN" "http://www.w3.org/Graphics/SVG/1.1/DTD/svg11.dtd" >
<svg xmlns="http://www.w3.org/2000/svg" xmlns:xlink="http://www.w3.org/1999/xlink" version="1.1">
<metadata></metadata>
<defs>
<font id="ramslight" horiz-adv-x="1126" >
<font-face units-per-em="2048" ascent="1536" descent="-512" />
<missing-glyph horiz-adv-x="491" />
<glyph unicode="&#xfb01;" horiz-adv-x="946" d="M61 897v82h144v195q0 70 12 122.5t43.5 99.5t93.5 72t154 25v-82q-59 0 -100.5 -16.5t-63 -47.5t-30.5 -67.5t-9 -83.5v-217h483v-979h-102v897h-381v-897h-100v897h-144zM682 1169v179h111v-179h-111z" />
<glyph unicode="&#xfb02;" horiz-adv-x="946" d="M61 897v82h144v195q0 70 12 122.5t43.5 99.5t93.5 72t154 25q56 0 126 -4.5t112 -8.5l42 -5v-1475h-102v1401q-78 10 -178 10q-59 0 -100.5 -16.5t-63 -47.5t-30.5 -67.5t-9 -83.5v-217h197v-82h-197v-897h-100v897h-144z" />
<glyph horiz-adv-x="0" />
<glyph horiz-adv-x="682" />
<glyph unicode=" "  horiz-adv-x="491" />
<glyph unicode="&#x09;" horiz-adv-x="491" />
<glyph unicode="&#xa0;" horiz-adv-x="491" />
<glyph unicode="!" horiz-adv-x="507" d="M184 0v141h140v-141h-140zM199 547v928h110v-928l-16 -219h-78z" />
<glyph unicode="&#x22;" horiz-adv-x="626" d="M123 977v498h123l-49 -498h-74zM401 977v498h123l-49 -498h-74z" />
<glyph unicode="#" d="M100 416v98h226l47 322h-221v98h235l70 461h75l-69 -461h266l70 461h75l-69 -461h219v-98h-233l-48 -322h230v-98h-244l-61 -416h-76l61 416h-266l-61 -416h-76l61 416h-211zM401 514h267l47 322h-266z" />
<glyph unicode="$" d="M143 96v111q7 -4 19 -11.5t50.5 -26t78.5 -33t98.5 -27.5t114.5 -15v596q-65 23 -107.5 40.5t-94.5 49t-82.5 65.5t-51.5 86.5t-21 115.5q0 144 101 237t256 111v188h102v-184q155 -7 269 -56l8 -4v-104q-13 6 -37.5 15.5t-97 26.5t-142.5 21v-532q51 -18 82 -29.5 t77.5 -32.5t75 -40.5t61.5 -49.5t51.5 -62.5t31 -77t12.5 -95.5q0 -91 -43 -171t-133.5 -137.5t-214.5 -70.5v-217h-102v217q-98 3 -188.5 27t-131.5 47zM258 1053q0 -97 64 -153t182 -99v493q-107 -14 -176.5 -77.5t-69.5 -163.5zM606 98q54 8 101 27.5t88.5 51.5 t65.5 83.5t24 116.5q0 57 -21 101.5t-63.5 77t-86 54t-108.5 45.5v-557z" />
<glyph unicode="%" horiz-adv-x="1433" d="M102 1110q0 129 90 219t216 90q128 0 218.5 -90t90.5 -219q0 -128 -90 -217.5t-219 -89.5t-217.5 89.5t-88.5 217.5zM184 1110q0 -93 66 -160t158 -67q94 0 160.5 66.5t66.5 160.5q0 96 -65.5 162.5t-161.5 66.5q-92 0 -158 -67t-66 -162zM219 0l891 1397h100l-888 -1397 h-103zM717 287q0 129 89.5 219t215.5 90q128 0 218.5 -90t90.5 -219q0 -128 -90 -217.5t-219 -89.5q-128 0 -216.5 89.5t-88.5 217.5zM799 287q0 -93 65.5 -160.5t157.5 -67.5q94 0 160.5 67t66.5 161q0 96 -65.5 162.5t-161.5 66.5q-92 0 -157.5 -67t-65.5 -162z" />
<glyph unicode="&#x26;" horiz-adv-x="1157" d="M102 428q0 72 20.5 137.5t50 107.5t59.5 73t50 45l21 14q-2 3 -23 31.5t-31 46.5t-25.5 51.5t-23 73t-7.5 84.5q0 131 104.5 228t267.5 97q60 0 116 -11.5t81 -22.5l26 -11v-104q-115 53 -221 53q-107 0 -185.5 -65.5t-78.5 -163.5q0 -60 23.5 -119.5t49 -95t68.5 -86.5 l449 -527q7 9 17.5 25t28 70.5t17.5 113.5h105q0 -68 -25 -139t-50 -108l-25 -38l135 -157l-74 -68l-129 152q-80 -68 -159 -101.5t-181 -33.5q-128 0 -232 62t-161.5 164.5t-57.5 221.5zM211 434q0 -144 98 -251t252 -107q45 0 88.5 11.5t73.5 28t53.5 33t35.5 27.5l11 12 l-454 535q-6 -4 -17 -11.5t-38 -34t-48 -57t-38 -81t-17 -105.5z" />
<glyph unicode="'" horiz-adv-x="348" d="M123 977v498h123l-49 -498h-74z" />
<glyph unicode="(" horiz-adv-x="550" d="M123 496q0 252 79 482.5t263 475.5l65 -43q-161 -259 -227.5 -480t-66.5 -435q0 -213 66 -433t228 -485q-4 -3 -11 -7.5t-21.5 -14t-24.5 -16t-10 -5.5q-184 250 -262 483.5t-78 477.5z" />
<glyph unicode=")" horiz-adv-x="550" d="M20 -422q162 266 228.5 486t66.5 432q0 213 -67 434.5t-228 480.5l66 43q184 -245 263 -475.5t79 -482.5q0 -244 -78 -477.5t-262 -483.5q0 -1 -17 10l-34 22z" />
<glyph unicode="*" horiz-adv-x="948" d="M82 1147q0 29 18 47t43 18q19 0 35 -8l275 -135l-41 305l-1 8q-1 9 -1 15q0 24 19.5 40.5t45.5 16.5q24 0 45 -17.5t21 -41.5q0 -5 -1 -13l-1 -8l-43 -305l274 135q16 8 35 8q25 0 43 -19.5t18 -45.5q0 -24 -15.5 -41.5t-39.5 -22.5l-303 -57l219 -215q16 -16 16 -45 q0 -27 -19.5 -47.5t-47.5 -20.5q-38 0 -53 31l-148 270l-149 -268q-16 -31 -56 -31q-26 0 -45.5 20t-19.5 44q0 29 20 49l215 213l-303 57q-25 4 -40 22.5t-15 41.5z" />
<glyph unicode="+" d="M123 621v88h395v395h88v-395h398v-88h-398v-398h-88v398h-395z" />
<glyph unicode="," horiz-adv-x="423" d="M131 -166l70 156v10h-58v137h138v-149l-105 -178z" />
<glyph unicode="-" horiz-adv-x="712" d="M123 516v86h467v-86h-467z" />
<glyph unicode="." horiz-adv-x="425" d="M143 0v141h140v-141h-140z" />
<glyph unicode="/" horiz-adv-x="616" d="M41 -20l436 1439h98l-436 -1439h-98z" />
<glyph unicode="0" d="M102 700q0 322 129.5 519.5t329.5 197.5q202 0 331.5 -197t129.5 -520q0 -325 -129.5 -522.5t-331.5 -197.5q-200 0 -329.5 198t-129.5 522zM209 700q0 -293 97 -459.5t255 -166.5q157 0 255.5 167t98.5 459q0 291 -98 457t-256 166t-255 -165.5t-97 -457.5z" />
<glyph unicode="1" d="M223 0v92h328v1200l-297 -153v100l299 158h100v-1305h330v-92h-760z" />
<glyph unicode="2" d="M164 0l258 324q20 25 74.5 93t75 94t64 84t61.5 88t46.5 80.5t40 86t21.5 79.5t10 85q0 138 -80.5 223.5t-208.5 85.5q-73 0 -153 -24t-124 -48l-44 -24v106q6 3 17 9t45 20.5t69.5 25.5t87 20t100.5 9q177 0 289.5 -111t112.5 -280q0 -48 -9.5 -96.5t-22 -88.5 t-42.5 -93.5t-51.5 -89t-70 -99.5t-77.5 -101t-92 -116l-199 -248h619v-94h-817z" />
<glyph unicode="3" d="M160 59v105q5 -4 14 -9.5t39.5 -21t64 -27t85 -21t104.5 -9.5q148 0 245 83t97 216q0 137 -85.5 219t-248.5 92v90q133 3 216 82t83 207q0 108 -78.5 182t-197.5 74q-64 0 -135 -19t-111 -38l-39 -19v98q14 8 39.5 20.5t105 33t158.5 20.5q164 0 264.5 -100t100.5 -252 q0 -71 -24.5 -131t-59 -95.5t-69 -60t-58.5 -34.5l-25 -9q6 -1 16 -4t38.5 -15.5t55 -28.5t58.5 -45.5t54.5 -64.5t38.5 -87.5t16 -112.5q0 -171 -127.5 -284t-321.5 -113q-88 0 -166.5 20t-112.5 40z" />
<glyph unicode="4" d="M111 377l507 1020h105l-459 -928h506v260h102v-260h156v-92h-156v-377h-102v377h-659z" />
<glyph unicode="5" d="M186 59v107q5 -4 15 -10t41.5 -21.5t64 -27.5t81.5 -21.5t97 -9.5q169 0 267 97.5t98 242.5q0 157 -104 253.5t-293 96.5q-39 0 -89 -5t-80 -11l-30 -5l74 650h551v-95h-459l-49 -450q65 8 114 8q219 0 347.5 -124t128.5 -314t-130.5 -315t-328.5 -125q-89 0 -168 20 t-114 40z" />
<glyph unicode="6" d="M164 467q0 266 142.5 518.5t400.5 431.5l59 -76q-164 -111 -297 -288.5t-178 -378.5q5 5 14 13t40.5 28.5t66 36t88.5 28.5t110 13q166 0 276.5 -120t110.5 -290q0 -167 -118.5 -285t-294.5 -118q-191 0 -305.5 132t-114.5 355zM268 449q0 -175 91.5 -274t222.5 -99 q136 0 219.5 87t83.5 222q0 127 -87 221t-216 94q-60 0 -115.5 -18t-93 -45.5t-61 -51t-36.5 -42.5q-8 -37 -8 -94z" />
<glyph unicode="7" d="M172 1305v92h852l-627 -1397h-110l594 1305h-709z" />
<glyph unicode="8" d="M123 365q0 71 24.5 133t59.5 101t70.5 67.5t60.5 40.5l24 12q-8 4 -21.5 12t-48 36.5t-61 62t-48 89.5t-21.5 117q0 162 115.5 270.5t287.5 108.5q168 0 284 -108.5t116 -270.5q0 -61 -20.5 -116t-50.5 -90t-59.5 -61.5t-50.5 -38.5l-20 -11q10 -4 26 -12.5t56.5 -39.5 t72 -68.5t57 -100t25.5 -133.5q0 -167 -124.5 -275t-309.5 -108q-191 0 -317.5 107t-126.5 276zM229 369q0 -129 93.5 -212t242.5 -83q146 0 237 82.5t91 212.5q0 129 -91 217t-235 88q-149 0 -243.5 -88t-94.5 -217zM264 1042q0 -119 85.5 -199.5t215.5 -80.5 q128 0 212.5 81t84.5 199q0 121 -83.5 201t-213.5 80q-132 0 -216.5 -80t-84.5 -201z" />
<glyph unicode="9" d="M139 1014q0 166 119 284.5t295 118.5q191 0 305.5 -132t114.5 -355q0 -266 -142.5 -518.5t-400.5 -431.5l-59 75q164 111 297 289t178 379q-5 -5 -14.5 -13t-41 -28.5t-66 -36t-88.5 -28.5t-110 -13q-166 0 -276.5 120t-110.5 290zM252 1012q0 -128 87 -222t216 -94 q60 0 115 18t93 46t61 51t36 43q8 37 8 94q0 175 -91 274t-222 99q-136 0 -219.5 -87t-83.5 -222z" />
<glyph unicode=":" horiz-adv-x="425" d="M143 0v141h140v-141h-140zM143 838v141h140v-141h-140z" />
<glyph unicode=";" horiz-adv-x="425" d="M131 -166l70 156v10h-58v137h138v-149l-105 -178zM143 838v141h140v-141h-140z" />
<glyph unicode="&#x3c;" horiz-adv-x="1124" d="M123 618v99l878 401v-100l-786 -350l786 -353v-98z" />
<glyph unicode="=" d="M123 438v88h881v-88h-881zM123 815v88h881v-88h-881z" />
<glyph unicode="&#x3e;" horiz-adv-x="1124" d="M123 217v98l786 353l-786 350v100l878 -401v-99z" />
<glyph unicode="?" horiz-adv-x="774" d="M61 1325v107q16 7 43 17t101 27t137 17q174 0 272.5 -95.5t98.5 -250.5q0 -78 -31 -150.5t-77 -129.5t-94 -107t-88.5 -103.5t-53.5 -99.5q-4 -15 -6.5 -32.5t-4.5 -41.5t-2.5 -42.5t-1.5 -55t-2 -57.5h-94q-8 111 -8 164q0 54 19 105.5t49.5 93.5t67.5 83t74 82.5 t67.5 84t49.5 95t19 107.5q0 46 -14 89.5t-42.5 81t-79 60.5t-116.5 23q-60 0 -131 -18t-111 -36zM236 0v141h139v-141h-139z" />
<glyph unicode="@" horiz-adv-x="1988" d="M123 498q0 183 72.5 350t194 287.5t290 192t352.5 71.5q163 0 315 -58.5t266.5 -160t183.5 -248t69 -311.5q0 -127 -50 -238t-132 -185t-187.5 -116.5t-216.5 -42.5h-106l20 151q-4 -7 -13 -18t-39.5 -39.5t-66 -50t-92.5 -39.5t-119 -18q-149 0 -245.5 108.5 t-96.5 272.5q0 133 62 254.5t176 198.5t252 77q67 0 122.5 -19t87 -46.5t53.5 -55t30 -46.5l8 -19l43 165h92l-170 -788q138 1 249.5 67t173.5 177t62 243q0 195 -97 353.5t-264.5 247t-371.5 88.5q-165 0 -314.5 -64t-257 -171.5t-170.5 -256.5t-63 -313q0 -168 63 -318 t170.5 -256.5t256 -168.5t313.5 -62q89 0 176 20t147 48.5t107.5 57t70.5 48.5l23 20v-123q-9 -7 -25 -18.5t-70 -40.5t-111.5 -51.5t-144 -41t-173.5 -18.5q-187 0 -354.5 70.5t-288 190.5t-191.5 288t-71 355zM629 416q0 -132 70.5 -214.5t181.5 -82.5q106 0 195 67.5 t137.5 172.5t48.5 219q0 125 -71.5 191.5t-189.5 66.5q-99 0 -186 -62.5t-136.5 -159.5t-49.5 -198z" />
<glyph unicode="A" horiz-adv-x="1191" d="M31 0l565 1432l565 -1432h-110l-127 322h-656l-127 -322h-110zM301 412h590l-295 780z" />
<glyph unicode="B" horiz-adv-x="1187" d="M174 0v1397h432q203 0 320.5 -92.5t117.5 -249.5q0 -56 -13 -104.5t-34.5 -81.5t-47 -60t-50.5 -43.5t-46.5 -27.5t-34.5 -15l-13 -4q6 -1 16.5 -3.5t40.5 -13t57.5 -25t61.5 -42.5t58 -63t40.5 -88t16.5 -115q0 -178 -125 -273.5t-334 -95.5h-463zM279 92h350 q177 0 268.5 70.5t91.5 202.5q0 151 -95 224t-316 73h-299v-570zM279 752h319q89 0 164 31t125.5 100t50.5 166q0 118 -86 187t-244 69h-329v-553z" />
<glyph unicode="C" horiz-adv-x="1196" d="M82 700q0 198 94.5 362.5t259 259.5t361.5 95q79 0 153.5 -12.5t109.5 -25.5l34 -13v-109q-14 7 -39 17.5t-103.5 28.5t-158.5 18q-123 0 -234.5 -47.5t-193.5 -129.5t-130.5 -197.5t-48.5 -244.5q0 -135 47.5 -253t126.5 -199t183.5 -127.5t216.5 -46.5q97 0 188 24 t134 48l42 24v-113l-17 -8.5t-48 -19t-76.5 -24t-100.5 -19t-122 -8.5q-188 0 -343.5 93.5t-245 258.5t-89.5 368z" />
<glyph unicode="D" horiz-adv-x="1290" d="M174 0v1397h295q173 0 313.5 -52t233 -144.5t142.5 -221t50 -281.5q0 -151 -50 -279t-142.5 -221t-233 -145.5t-313.5 -52.5h-295zM281 92h196q297 0 461 166.5t164 439.5q0 275 -163.5 441t-461.5 166h-196v-1213z" />
<glyph unicode="E" horiz-adv-x="1067" d="M174 0v1397h815v-92h-713v-551h594v-92h-594v-570h730v-92h-832z" />
<glyph unicode="F" horiz-adv-x="964" d="M174 0v1397h739v-92h-634v-551h567v-92h-567v-662h-105z" />
<glyph unicode="G" horiz-adv-x="1400" d="M82 700q0 149 54.5 281t150 228t233 152t295.5 56q89 0 178 -19.5t133 -39.5l45 -19v-112q-6 4 -18 10t-49.5 22.5t-77.5 29t-99.5 22.5t-117.5 10q-176 0 -320 -83.5t-224.5 -226t-80.5 -311.5q0 -137 49 -255.5t131 -198.5t190 -125t224 -45q74 0 142.5 13.5t113.5 33 t79.5 39.5t50.5 34l16 13v358h-445v92h543v-505q-8 -7 -23 -19t-64.5 -42t-103.5 -52.5t-138 -41.5t-169 -19q-142 0 -270.5 55t-222.5 149.5t-149.5 229t-55.5 286.5z" />
<glyph unicode="H" horiz-adv-x="1372" d="M174 0v1397h102v-643h820v643h102v-1397h-102v659h-820v-659h-102z" />
<glyph unicode="I" horiz-adv-x="452" d="M174 0v1397h105v-1397h-105z" />
<glyph unicode="J" horiz-adv-x="501" d="M61 0v88q81 0 129 52.5t48 158.5v1098h100v-1102q0 -135 -67.5 -215t-209.5 -80z" />
<glyph unicode="K" horiz-adv-x="1130" d="M174 0v1397h102v-789l648 789h131l-531 -633l596 -764h-129l-530 688l-185 -221v-467h-102z" />
<glyph unicode="L" horiz-adv-x="991" d="M174 0v1397h105v-1305h671v-92h-776z" />
<glyph unicode="M" horiz-adv-x="1619" d="M174 0v1421l635 -735l637 735v-1421h-100v1155l-537 -616l-535 616v-1155h-100z" />
<glyph unicode="N" horiz-adv-x="1372" d="M174 0v1421l922 -1161v1137h102v-1422l-922 1162v-1137h-102z" />
<glyph unicode="O" horiz-adv-x="1601" d="M82 698q0 146 57 279.5t153 229.5t229.5 153t279.5 57t279.5 -57t229.5 -153t153 -229.5t57 -279.5t-57 -279t-153 -229t-229.5 -153t-279.5 -57t-279.5 57t-229.5 153t-153 229t-57 279zM184 698q0 -125 49 -240.5t131.5 -199.5t197 -134t239.5 -50q167 0 309 84.5 t224.5 228.5t82.5 311t-82.5 310.5t-224.5 228t-309 84.5t-309.5 -84.5t-225 -228t-82.5 -310.5z" />
<glyph unicode="P" horiz-adv-x="1120" d="M174 0v1397h444q108 0 193.5 -36.5t135.5 -96.5t76 -130.5t26 -144.5q0 -75 -26 -145.5t-76.5 -130t-136 -95.5t-194.5 -36h-342v-582h-100zM274 674h347q153 0 239 89t86 224q0 138 -85.5 228t-239.5 90h-347v-631z" />
<glyph unicode="Q" horiz-adv-x="1601" d="M82 698q0 146 57 279.5t153 229.5t229.5 153t279.5 57t279.5 -57t229.5 -153t153 -229.5t57 -279.5q0 -235 -136.5 -422t-353.5 -260l410 -288v-123l-533 383q-70 -8 -106 -8q-146 0 -279.5 57t-229.5 153t-153 229t-57 279zM184 698q0 -125 49 -240.5t131.5 -199.5 t197 -134t239.5 -50q167 0 309 84.5t224.5 228.5t82.5 311t-82.5 310.5t-224.5 228t-309 84.5t-309.5 -84.5t-225 -228t-82.5 -310.5z" />
<glyph unicode="R" horiz-adv-x="1138" d="M174 0v1397h444q191 0 305.5 -115.5t114.5 -280.5q0 -163 -115 -277t-305 -114h-79l567 -610h-143l-639 702h299q138 0 225.5 85t87.5 214q0 131 -87.5 217.5t-225.5 86.5h-347v-1305h-102z" />
<glyph unicode="S" horiz-adv-x="1038" d="M102 72v110q7 -4 19.5 -11.5t52.5 -25.5t81.5 -32t102.5 -25.5t119 -11.5q65 0 126 14.5t117 45.5t90 88t34 134q0 55 -20.5 100.5t-56 77t-83 59.5t-100.5 48.5t-109 44.5t-109 46.5t-100.5 55t-83 69.5t-56 90.5t-20.5 117.5q0 161 124.5 255.5t310.5 94.5 q76 0 152 -13.5t113 -26.5l38 -13l-2 -104q-15 7 -41.5 16.5t-105 26t-152.5 16.5q-139 0 -232.5 -64.5t-93.5 -181.5q0 -73 41 -128t106 -89.5t143.5 -65t157.5 -65t144 -79t106 -117.5t41 -169q0 -74 -30.5 -141t-88 -121t-152 -86t-212.5 -32q-97 0 -190 23t-137 46z" />
<glyph unicode="T" horiz-adv-x="970" d="M41 1305v92h889v-92h-393v-1305h-103v1305h-393z" />
<glyph unicode="U" horiz-adv-x="1337" d="M154 487v910h102v-905q0 -191 119 -304.5t295 -113.5q114 0 206.5 49t148.5 145.5t56 223.5v905h103v-910q0 -148 -70.5 -265.5t-187 -179.5t-256.5 -62t-257 62t-188 179.5t-71 265.5z" />
<glyph unicode="V" horiz-adv-x="1212" d="M41 1397h113l452 -1190l453 1190h112l-565 -1432z" />
<glyph unicode="W" horiz-adv-x="1896" d="M61 1397h109l354 -1143l424 1145l424 -1145l354 1143h109l-453 -1430l-434 1161l-436 -1159z" />
<glyph unicode="X" horiz-adv-x="1159" d="M41 0l473 729l-434 668h123l377 -598l376 598h123l-436 -668l475 -729h-121l-417 655l-420 -655h-119z" />
<glyph unicode="Y" horiz-adv-x="1103" d="M20 1397h113l420 -752l418 752h112l-481 -838v-559h-100v559z" />
<glyph unicode="Z" horiz-adv-x="1048" d="M61 0l783 1305h-735v92h899l-783 -1305h762v-92h-926z" />
<glyph unicode="[" horiz-adv-x="509" d="M174 -410v1807h295v-82h-190v-1643h190v-82h-295z" />
<glyph unicode="\" horiz-adv-x="616" d="M41 1419h98l436 -1439h-98z" />
<glyph unicode="]" horiz-adv-x="509" d="M41 -328h190v1643h-190v82h295v-1807h-295v82z" />
<glyph unicode="^" horiz-adv-x="950" d="M82 647l338 750h110l338 -750h-116l-277 637l-276 -637h-117z" />
<glyph unicode="_" horiz-adv-x="1001" d="M-10 -154h1022v-82h-1022v82z" />
<glyph unicode="`" horiz-adv-x="362" d="M0 1288l49 96l313 -178l-34 -69z" />
<glyph unicode="a" horiz-adv-x="1179" d="M82 489q0 141 63.5 258t176.5 184.5t251 67.5q69 0 130.5 -17.5t100.5 -42.5t68 -50t42 -43l12 -17l6 150h94v-979h-94l-6 152q-4 -7 -13 -18.5t-40.5 -41t-69 -52.5t-99.5 -41.5t-131 -18.5q-138 0 -250.5 66t-176.5 183t-64 260zM184 489q0 -179 115 -302.5t279 -123.5 q71 0 132.5 23t99.5 56t65.5 66t38.5 56l12 23v401q-4 9 -12 24.5t-38 54.5t-66.5 69t-98.5 54.5t-133 24.5q-164 0 -279 -123t-115 -303z" />
<glyph unicode="b" horiz-adv-x="1150" d="M154 0v1475h100v-658q4 7 13 19.5t41.5 44t70.5 55.5t101.5 43.5t133.5 19.5q129 0 234 -68.5t163 -185.5t58 -256q0 -213 -131 -361t-328 -148q-71 0 -133.5 19t-101.5 46.5t-68 55t-41 46.5l-12 19l-6 -166h-94zM254 311q4 -15 19 -42.5t45.5 -63.5t69 -67t95.5 -53 t119 -22q102 0 186.5 58.5t131.5 156t47 211.5q0 115 -47 212.5t-131.5 155.5t-186.5 58q-76 0 -144 -32t-109.5 -76.5t-65.5 -82.5t-29 -60v-353z" />
<glyph unicode="c" horiz-adv-x="897" d="M82 489q0 138 67 255.5t183 186t254 68.5q59 0 111.5 -8.5t74.5 -16.5l23 -9l-2 -97q-9 5 -26.5 12.5t-71.5 20t-109 12.5q-163 0 -281.5 -125t-118.5 -299q0 -180 115 -301.5t281 -121.5q62 0 120 13t86 27l27 13v-94q-10 -5 -29 -12.5t-82 -20t-131 -12.5 q-209 0 -350 146t-141 363z" />
<glyph unicode="d" horiz-adv-x="1146" d="M80 489q0 139 58 256t163 185.5t234 68.5q70 0 133 -18.5t102.5 -45.5t69 -54t42.5 -45l13 -19v658h100v-1475h-94l-6 166q-4 -8 -12.5 -20.5t-40 -44.5t-69 -56.5t-100.5 -44.5t-134 -20q-197 0 -328 148t-131 361zM182 489q0 -114 47 -211.5t131.5 -156t186.5 -58.5 q62 0 119 22t95.5 53t69 67t45.5 63.5t19 42.5v353q-5 22 -29 60t-65.5 82.5t-109.5 76.5t-144 32q-102 0 -186.5 -58t-131.5 -155.5t-47 -212.5z" />
<glyph unicode="e" horiz-adv-x="1073" d="M82 492q0 138 65 254.5t179 184.5t249 68q109 0 196 -45t137.5 -116t77 -151.5t26.5 -160.5l-2 -84h-824q9 -159 124.5 -270t283.5 -111q68 0 144.5 24.5t118.5 48.5l42 24v-99q-16 -9 -44 -22t-111 -35t-162 -22q-145 0 -260 68t-177.5 184.5t-62.5 259.5zM186 524h729 q0 161 -94 277.5t-246 116.5q-104 0 -193.5 -58t-140.5 -148t-55 -188z" />
<glyph unicode="f" horiz-adv-x="528" d="M61 897v82h144v195q0 70 12 122.5t43.5 99.5t93.5 72t154 25v-82q-59 0 -100.5 -16.5t-63 -47.5t-30.5 -67.5t-9 -83.5v-217h197v-82h-197v-897h-100v897h-144z" />
<glyph unicode="g" horiz-adv-x="1179" d="M82 500q0 136 63.5 250t176.5 181.5t251 67.5q68 0 129 -17.5t100 -43t68.5 -51t42.5 -43.5l13 -17l6 152h94v-979q0 -208 -113 -319t-321 -111q-71 0 -135.5 10t-106 24.5t-72.5 29t-45 24.5l-14 10l45 84q6 -4 16 -10.5t43 -23.5t67.5 -30t86 -23.5t101.5 -10.5 q73 0 132 17t109.5 56t78.5 112t28 175v158q-4 -7 -13 -18.5t-40.5 -41t-69 -52.5t-99.5 -41.5t-131 -18.5q-209 0 -350 144.5t-141 355.5zM184 500q0 -172 115.5 -294t278.5 -122q51 0 98 12.5t81 32t63.5 43.5t48 47.5t32 43t19.5 31.5l6 13v385q-4 9 -12 24t-38.5 53.5 t-67 68t-98.5 53.5t-132 24q-163 0 -278.5 -121t-115.5 -294z" />
<glyph unicode="h" horiz-adv-x="1130" d="M154 0v1475h100v-658q5 7 15 19.5t44.5 44t74 55.5t103.5 43.5t132 19.5q164 0 274.5 -99t110.5 -277v-623h-101v598q0 152 -82 233.5t-207 81.5q-49 0 -95 -12.5t-81.5 -33t-66.5 -45t-52.5 -48.5t-37.5 -44.5t-23 -33.5l-8 -12v-684h-100z" />
<glyph unicode="i" horiz-adv-x="417" d="M154 1169v179h110v-179h-110zM158 0v979h102v-979h-102z" />
<glyph unicode="j" horiz-adv-x="425" d="M-23 -346q59 0 98 16t58 47.5t26 66t7 83.5v1112h102v-1090q0 -57 -5.5 -99.5t-24 -86t-49.5 -71t-84.5 -45t-127.5 -17.5v84zM162 1169v179h110v-179h-110z" />
<glyph unicode="k" horiz-adv-x="966" d="M154 0v1475h100v-1035l496 539h131l-394 -418l439 -561h-123l-381 494l-168 -179v-315h-100z" />
<glyph unicode="l" horiz-adv-x="417" d="M158 0v1475h102v-1475h-102z" />
<glyph unicode="m" horiz-adv-x="1691" d="M154 0v979h92l8 -156q6 7 16 19t44.5 42.5t71 53.5t92 42t110.5 19q61 0 113.5 -17.5t84.5 -43t55 -51t33 -43.5l9 -17q5 7 15.5 18.5t44.5 41t71.5 52.5t94.5 41.5t116 18.5q165 0 249.5 -104t84.5 -266v-629h-101v598q0 157 -63 237t-181 80q-55 0 -108 -20.5 t-91.5 -51.5t-64.5 -60.5t-39 -53.5v-729h-100v621q0 141 -59.5 217.5t-169.5 76.5q-60 0 -119 -25.5t-101 -63t-69.5 -71t-38.5 -57.5v-698h-100z" />
<glyph unicode="n" horiz-adv-x="1140" d="M154 0v979h94l6 -164q5 7 15 19.5t44.5 44.5t74 56t103.5 44t132 20q164 0 274.5 -99t110.5 -277v-623h-101v598q0 152 -82 233.5t-207 81.5q-49 0 -95 -12.5t-81.5 -33t-66.5 -45t-52.5 -48.5t-37.5 -44.5t-23 -33.5l-8 -12v-684h-100z" />
<glyph unicode="o" horiz-adv-x="1171" d="M82 489q0 138 67 255.5t183 186t254 68.5t254 -68.5t183 -186t67 -255.5q0 -211 -147 -360t-357 -149t-357 149t-147 360zM182 489q0 -177 118.5 -302.5t285.5 -125.5t285 125.5t118 302.5t-118 303t-285 126t-285.5 -126t-118.5 -303z" />
<glyph unicode="p" horiz-adv-x="1150" d="M154 -410v1389h94l6 -166q4 8 12.5 20.5t40 44.5t69 56.5t100.5 44.5t134 20q197 0 328 -148.5t131 -361.5q0 -139 -58 -255.5t-163 -185t-234 -68.5q-70 0 -133 18.5t-102.5 45.5t-69 54t-42.5 46l-13 18v-572h-100zM254 315q3 -16 18.5 -44t46 -64.5t69 -68t95.5 -53.5 t119 -22q102 0 186.5 58t131.5 155.5t47 212.5q0 114 -47 211.5t-131.5 156t-186.5 58.5q-62 0 -119 -21.5t-95.5 -53t-69 -67.5t-45.5 -63t-19 -42v-353z" />
<glyph unicode="q" horiz-adv-x="1150" d="M82 489q0 213 131 361.5t328 148.5q71 0 133.5 -19t101.5 -46.5t68 -55t41 -46.5l12 -19l6 166h94v-1389h-100v572q-4 -7 -13 -19.5t-41.5 -44t-70.5 -55.5t-101.5 -43.5t-133.5 -19.5q-129 0 -234 68.5t-163 185t-58 255.5zM184 489q0 -115 47 -212.5t131.5 -155.5 t186.5 -58q62 0 119 22t95.5 53.5t69 68t46 64.5t18.5 44v353q-4 15 -19 42t-45.5 63t-69 67.5t-95.5 53t-119 21.5q-102 0 -186.5 -58.5t-131.5 -156t-47 -211.5z" />
<glyph unicode="r" horiz-adv-x="661" d="M154 0v979h94l8 -201q3 9 10 24t33.5 53t59.5 67t90.5 53t123.5 24l48 -4v-88q-23 4 -54 4q-121 0 -217 -115.5t-96 -260.5v-535h-100z" />
<glyph unicode="s" horiz-adv-x="874" d="M102 57v105q5 -4 15.5 -10.5t43 -23t66.5 -29t85 -23t100 -10.5q46 0 91 9.5t87.5 29.5t69 57.5t26.5 87.5t-31.5 88.5t-82.5 63.5t-112 46.5t-122.5 46t-112.5 54t-82.5 78.5t-31.5 112q0 124 97 192t247 68q62 0 123.5 -12.5t92.5 -24.5l31 -12l-2 -96q-13 7 -36 16.5 t-90 26t-130 16.5q-93 0 -160 -42t-67 -121q0 -49 32 -86t82.5 -61t112 -45t123 -45.5t112 -55.5t82.5 -82.5t32 -118.5q0 -113 -99 -194.5t-286 -81.5q-50 0 -100.5 8t-85.5 19.5t-63.5 22.5t-42.5 19z" />
<glyph unicode="t" horiz-adv-x="518" d="M41 897v82h143v205h103v-205h211v-82h-211v-897h-103v897h-143z" />
<glyph unicode="u" horiz-adv-x="1140" d="M133 356v623h100v-598q0 -153 76.5 -234t200.5 -81q67 0 130 23.5t106 57.5t76.5 67.5t49.5 57.5l15 23v684h100v-979h-94l-6 168q-6 -8 -16.5 -20.5t-47.5 -45t-78 -57t-106 -45t-133 -20.5q-163 0 -268 98.5t-105 277.5z" />
<glyph unicode="v" horiz-adv-x="929" d="M20 979h107l338 -809l336 809h108l-446 -1016z" />
<glyph unicode="w" horiz-adv-x="1576" d="M61 979h105l295 -797l327 803l328 -803l295 797h105l-396 -1018l-332 799l-331 -797z" />
<glyph unicode="x" horiz-adv-x="909" d="M41 0l354 500l-329 479h118l271 -406l270 406h119l-330 -479l354 -500h-118l-295 428l-295 -428h-119z" />
<glyph unicode="y" horiz-adv-x="980" d="M20 979h105l371 -836l356 836h109l-611 -1389h-100l194 445z" />
<glyph unicode="z" horiz-adv-x="915" d="M61 0l631 897h-583v82h745l-625 -897h602v-82h-770z" />
<glyph unicode="{" horiz-adv-x="509" d="M0 453v82q83 15 128.5 87t45.5 181v346q0 113 61.5 180.5t155.5 67.5h78v-82h-45q-77 0 -112.5 -48.5t-35.5 -154.5v-321q0 -67 -17 -122.5t-41.5 -86.5t-49.5 -52t-42 -28l-17 -8q7 -2 18 -7.5t40 -29t51 -53.5t40 -86t18 -123v-320q0 -106 35.5 -154.5t112.5 -48.5h45 v-82h-78q-94 0 -155.5 67.5t-61.5 180.5v348q0 105 -46 178.5t-128 88.5z" />
<glyph unicode="|" horiz-adv-x="464" d="M184 -430v1925h97v-1925h-97z" />
<glyph unicode="}" horiz-adv-x="509" d="M41 -328h45q77 0 112 48.5t35 154.5v320q0 67 17.5 122.5t42 87t49 53t42.5 28.5l17 8q-7 2 -18 7.5t-40 28t-51.5 53t-40.5 86t-18 122.5v321q0 106 -35 154.5t-112 48.5h-45v82h78q94 0 155.5 -67.5t61.5 -180.5v-346q0 -109 45.5 -181t128.5 -87v-82 q-82 -15 -128 -88.5t-46 -178.5v-348q0 -113 -61.5 -180.5t-155.5 -67.5h-78v82z" />
<glyph unicode="~" horiz-adv-x="1218" d="M123 449v94q5 5 13.5 13t36.5 29t57.5 37t73.5 29t87 13q60 0 146 -35.5t168.5 -71t134.5 -35.5q54 0 118 33t101 65l37 33v-100q-5 -5 -13.5 -13t-36.5 -28t-58 -35.5t-74 -28t-87 -12.5q-60 0 -146 35.5t-168 71t-134 35.5q-34 0 -73 -13.5t-70 -32t-57.5 -37.5 t-40.5 -33z" />
<glyph unicode="&#xa1;" horiz-adv-x="507" d="M184 838v141h140v-141h-140zM199 432l16 219h78l16 -219v-928h-110v928z" />
<glyph unicode="&#xa2;" d="M188 489q0 185 116 327t284 175v183h98v-175q64 -2 118.5 -13.5t76.5 -22.5l22 -11l-4 -100q-9 6 -25.5 15.5t-72 26t-115.5 19.5v-847q65 2 124 19t86 33l26 17v-98q-9 -6 -27 -14.5t-79.5 -24t-129.5 -18.5v-199h-98v205q-167 30 -283.5 172t-116.5 331zM293 489 q0 -150 85 -265t210 -148v827q-124 -33 -209.5 -149.5t-85.5 -264.5z" />
<glyph unicode="&#xa3;" d="M135 0v94h45q6 3 16 9.5t36 29t46 48t36 68.5t16 89v328h-195v90h195v295q0 175 107.5 270.5t281.5 95.5q60 0 124 -13.5t98 -27.5l34 -14v-98q-16 7 -42 17t-93 27t-117 17q-125 0 -205 -64.5t-80 -197.5v-307h293v-90h-293v-308q0 -49 -12 -94t-29 -74.5t-34 -52 t-29 -33.5l-12 -10h706v-94h-893z" />
<glyph unicode="&#xa4;" d="M131 133l133 133q-82 106 -82 236q0 129 82 235l-133 133l66 66l133 -133q106 82 235 82q130 0 236 -82l133 133l65 -66l-133 -133q82 -106 82 -235q0 -130 -82 -236l133 -133l-65 -65l-133 133q-106 -82 -236 -82q-129 0 -235 82l-133 -133zM279 504q0 -119 84 -203 t202 -84q119 0 203 84.5t84 202.5t-84 202.5t-203 84.5q-118 0 -202 -84t-84 -203z" />
<glyph unicode="&#xa5;" d="M98 1397h113l352 -752l352 752h113l-373 -752h285v-94h-328v-139h328v-95h-328v-317h-100v317h-328v95h328v139h-328v94h285z" />
<glyph unicode="&#xa6;" horiz-adv-x="464" d="M184 322h97v-732h-97v732zM184 666v731h97v-731h-97z" />
<glyph unicode="&#xa7;" horiz-adv-x="1071" d="M123 557q0 167 196 281q-80 42 -124.5 103.5t-44.5 154.5q0 102 60 176.5t155.5 110.5t212.5 36q51 0 102 -6t87.5 -14.5t65 -17.5t43 -15t13.5 -6v-107q-15 8 -42.5 19t-109.5 30t-159 19q-133 0 -223.5 -58.5t-90.5 -170.5q0 -59 37.5 -103.5t98 -73t133.5 -54 t146 -54.5t133.5 -65.5t98 -96t37.5 -137.5q0 -94 -58.5 -165t-139.5 -116q81 -45 126.5 -106t45.5 -154q0 -101 -60 -175t-155 -110t-211 -36q-82 0 -161 15t-117 29l-38 15l2 107q15 -8 43 -19t110.5 -30t160.5 -19q84 0 152.5 23.5t113.5 76.5t45 129q0 59 -37.5 103.5 t-98 73t-133.5 54t-146 54.5t-133.5 65.5t-98 96t-37.5 137.5zM236 563q0 -37 12.5 -67.5t37.5 -54.5t53 -43t70.5 -37t77 -31t85 -31t83.5 -31q71 37 126 96t55 138q0 42 -19.5 77.5t-46 58.5t-74.5 47.5t-85 38t-100 36t-97 35.5q-31 -16 -58 -36t-56.5 -48.5t-46.5 -67 t-17 -80.5z" />
<glyph unicode="&#xa8;" horiz-adv-x="417" d="M0 1171v175h102v-175h-102zM315 1171v175h103v-175h-103z" />
<glyph unicode="&#xa9;" horiz-adv-x="1642" d="M102 698q0 145 58 278.5t154.5 229.5t229.5 153.5t277 57.5t277 -57.5t229.5 -153.5t154.5 -229.5t58 -278.5q0 -193 -97 -358.5t-263 -262.5t-359 -97t-359 97t-263 262.5t-97 358.5zM201 698q0 -167 83.5 -309.5t226.5 -225.5t310 -83q166 0 309.5 83.5t227.5 226 t84 308.5q0 125 -50 240t-133.5 198.5t-198.5 133t-239 49.5q-167 0 -310 -83.5t-226.5 -226.5t-83.5 -311zM459 696q0 174 116 291t289 117q47 0 88.5 -10t59.5 -20l18 -9v-86q-76 41 -170 41q-123 0 -212 -96t-89 -228q0 -134 88 -228.5t209 -94.5q47 0 93.5 12.5 t69.5 25.5l23 13l5 -92q-8 -5 -23 -12t-65 -19t-105 -12q-167 0 -281 116.5t-114 290.5z" />
<glyph unicode="&#xaa;" horiz-adv-x="727" d="M61 1100q0 129 83.5 218t203.5 89q38 0 72.5 -9.5t56 -23.5t37 -28t22.5 -24l7 -9l6 82h94v-588h-94l-6 84q-2 -4 -7 -11t-22.5 -24t-38 -30t-55 -24t-72.5 -11q-120 0 -203.5 90t-83.5 219zM113 588v90h532v-90h-532zM156 1100q0 -92 59.5 -156.5t149.5 -64.5 q34 0 64.5 10t50.5 24.5t35 29t21 24.5l7 10v244q-2 4 -7 10.5t-22 23.5t-36 30t-49.5 23.5t-63.5 10.5q-89 0 -149 -64t-60 -155z" />
<glyph unicode="&#xab;" horiz-adv-x="837" d="M82 481l285 432h104l-283 -432l283 -434h-104zM367 481l284 432h105l-283 -432l283 -434h-105z" />
<glyph unicode="&#xac;" d="M123 762v88h881v-412h-86v324h-795z" />
<glyph unicode="&#xad;" horiz-adv-x="712" d="M123 516v86h467v-86h-467z" />
<glyph unicode="&#xae;" horiz-adv-x="1642" d="M102 698q0 145 58 278.5t154.5 229.5t229.5 153.5t277 57.5t277 -57.5t229.5 -153.5t154.5 -229.5t58 -278.5q0 -193 -97 -358.5t-263 -262.5t-359 -97t-359 97t-263 262.5t-97 358.5zM201 698q0 -167 83.5 -309.5t226.5 -225.5t310 -83q166 0 309.5 83.5t227.5 226 t84 308.5q0 125 -50 240t-133.5 198.5t-198.5 133t-239 49.5q-167 0 -310 -83.5t-226.5 -226.5t-83.5 -311zM592 291v807h260q109 0 178.5 -70t69.5 -168q0 -92 -59.5 -156t-133.5 -77l189 -336h-115l-178 323h-117v-323h-94zM686 707h152q72 0 116.5 43.5t44.5 107.5 q0 65 -44.5 108.5t-116.5 43.5h-152v-303z" />
<glyph unicode="&#xaf;" horiz-adv-x="370" d="M0 1214v93h371v-93h-371z" />
<glyph unicode="&#xb0;" horiz-adv-x="655" d="M61 1180q0 110 78.5 188t188.5 78t188 -78t78 -188t-78 -188.5t-188 -78.5t-188.5 78.5t-78.5 188.5zM141 1180q0 -78 54.5 -133.5t132.5 -55.5t133 55.5t55 133.5t-55 133t-133 55t-132.5 -55t-54.5 -133z" />
<glyph unicode="&#xb1;" d="M123 131v88h881v-88h-881zM123 725v88h395v375h88v-375h398v-88h-398v-377h-88v377h-395z" />
<glyph unicode="&#xb2;" horiz-adv-x="657" d="M82 940q63 84 139 186q11 15 44.5 58.5t47.5 63t40.5 57.5t39.5 62t28.5 56t21.5 59.5t6 53.5q0 73 -42.5 116.5t-113.5 43.5q-41 0 -89 -18.5t-76 -37.5l-28 -18v94q12 7 31.5 17.5t74 28.5t99.5 18q105 0 174.5 -64t69.5 -168q0 -28 -6 -57t-12.5 -52.5t-26 -58.5 t-31 -55.5t-44 -66t-48 -66.5t-60.5 -80t-65 -86h319v-86h-493z" />
<glyph unicode="&#xb3;" horiz-adv-x="610" d="M61 979v94q10 -7 27 -17t68.5 -27t99.5 -17q74 0 124 43t50 112q0 68 -47 110.5t-139 45.5v86q85 6 126.5 47.5t41.5 102.5q0 55 -41.5 94t-98.5 39q-43 0 -89.5 -12t-71.5 -24l-25 -11v84q10 5 27.5 13t69 21t98.5 13q101 0 163 -59t62 -154q0 -35 -12 -67.5t-29 -53.5 t-34.5 -37t-29.5 -23l-12 -8q6 -2 15 -6.5t33 -21.5t42.5 -38.5t33.5 -59t15 -81.5q0 -103 -76 -170t-194 -67q-51 0 -100.5 12t-73.5 24z" />
<glyph unicode="&#xb4;" horiz-adv-x="362" d="M0 1206l313 178l49 -96l-327 -151z" />
<glyph unicode="&#xb5;" horiz-adv-x="1148" d="M154 -410v1389h100v-621q0 -131 82.5 -211.5t200.5 -80.5q65 0 125.5 23.5t101 57.5t71.5 67.5t45 57.5l15 23v684h100v-979h-94l-6 168q-5 -8 -15 -20.5t-44 -45t-72 -57t-98.5 -45t-124.5 -20.5q-59 0 -110.5 13.5t-82.5 32.5t-53.5 38.5t-31.5 33.5l-9 13v-521h-100z " />
<glyph unicode="&#xb6;" horiz-adv-x="1048" d="M61 1049q0 150 103.5 249t265.5 99h537v-94h-121v-1653h-105v1653h-168v-1653h-104v1050h-43q-158 0 -261.5 99.5t-103.5 249.5z" />
<glyph unicode="&#xb7;" horiz-adv-x="425" d="M143 479v142h140v-142h-140z" />
<glyph unicode="&#xb8;" horiz-adv-x="272" d="M0 -264q39 -25 86 -25q34 0 61 18.5t27 53.5q0 33 -33 53.5t-67 24.5l-33 4l39 137h92l-22 -90q5 -1 13 -3.5t29 -12.5t37.5 -23t29.5 -37.5t13 -54.5q0 -72 -51 -110t-117 -38q-31 0 -57 6t-37 11l-10 6v80z" />
<glyph unicode="&#xb9;" horiz-adv-x="421" d="M41 1585v86l170 90h88v-821h-92v737z" />
<glyph unicode="&#xba;" horiz-adv-x="718" d="M61 1098q0 130 84.5 217.5t212.5 87.5q127 0 213 -88.5t86 -216.5q0 -130 -85.5 -220t-213.5 -90t-212.5 89.5t-84.5 220.5zM115 588v90h493v-90h-493zM154 1098q0 -93 57 -158.5t147 -65.5t146.5 65.5t56.5 158.5q0 91 -57 155t-146 64t-146.5 -64t-57.5 -155z" />
<glyph unicode="&#xbb;" horiz-adv-x="837" d="M82 47l283 434l-283 432h104l285 -432l-285 -434h-104zM367 47l282 434l-282 432h104l285 -432l-285 -434h-104z" />
<glyph unicode="&#xbc;" horiz-adv-x="1361" d="M102 1221v86l170 90h88v-822h-92v738zM197 -20l798 1439h95l-797 -1439h-96zM702 209l308 612h92l-266 -532h243v145h88v-145h93v-80h-93v-209h-88v209h-377z" />
<glyph unicode="&#xbd;" horiz-adv-x="1441" d="M102 1221v86l170 90h88v-822h-92v738zM197 -20l798 1439h95l-797 -1439h-96zM846 0q63 84 139 186q10 13 44.5 58.5t47 63t40.5 57t39.5 62.5t27.5 55.5t22 60t6 53.5q0 73 -42 116.5t-113 43.5q-41 0 -89 -18.5t-76 -37.5l-28 -18v94q12 7 31.5 17.5t74 28.5t99.5 18 q105 0 174.5 -64t69.5 -168q0 -28 -6 -57t-12.5 -52.5t-26 -58.5t-31 -55.5t-44 -66t-48 -66.5t-60.5 -80t-65 -86h319v-86h-493z" />
<glyph unicode="&#xbe;" horiz-adv-x="1515" d="M102 614v95q10 -7 27 -17.5t68.5 -27.5t99.5 -17q74 0 124 43.5t50 112.5q0 68 -47 110t-139 45v86q85 6 126.5 47.5t41.5 102.5q0 55 -41.5 94t-98.5 39q-43 0 -89.5 -11.5t-71.5 -23.5l-25 -12v84q10 5 27.5 13t69 21t98.5 13q101 0 163 -59t62 -154q0 -35 -12 -67 t-29 -53.5t-34.5 -37.5t-29.5 -23l-12 -7q6 -2 15 -6.5t33 -21.5t42.5 -38.5t33.5 -59t15 -81.5q0 -103 -76 -170.5t-194 -67.5q-51 0 -100.5 12.5t-72.5 24.5zM350 -20l799 1439h94l-797 -1439h-96zM856 209l307 612h92l-266 -532h244v145h88v-145h92v-80h-92v-209h-88v209 h-377z" />
<glyph unicode="&#xbf;" horiz-adv-x="774" d="M61 -168q0 78 31 150.5t77.5 129.5t94.5 107t88.5 103.5t53.5 99.5q5 18 8 45t4 47.5t2 66t2 70.5h94q8 -111 8 -164q0 -54 -19 -105.5t-49.5 -93.5t-67.5 -83t-74 -82.5t-67.5 -84t-49.5 -95t-19 -107.5q0 -46 14 -89.5t42.5 -81t79 -60.5t116.5 -23q60 0 131 18t111 36 l41 18v-107q-16 -7 -43 -17t-101 -27t-137 -17q-174 0 -272.5 95.5t-98.5 250.5zM399 838v141h140v-141h-140z" />
<glyph unicode="&#xc0;" horiz-adv-x="1191" d="M31 0l565 1432l565 -1432h-110l-127 322h-656l-127 -322h-110zM301 412h590l-295 780zM414 1706l49 96l313 -178l-35 -70z" />
<glyph unicode="&#xc1;" horiz-adv-x="1191" d="M31 0l565 1432l565 -1432h-110l-127 322h-656l-127 -322h-110zM301 412h590l-295 780zM426 1624l313 178l49 -96l-327 -152z" />
<glyph unicode="&#xc2;" horiz-adv-x="1191" d="M31 0l565 1432l565 -1432h-110l-127 322h-656l-127 -322h-110zM301 412h590l-295 780zM373 1636l223 144l223 -144l-37 -65l-186 98l-186 -98z" />
<glyph unicode="&#xc3;" horiz-adv-x="1191" d="M31 0l565 1432l565 -1432h-110l-127 322h-656l-127 -322h-110zM301 412h590l-295 780zM371 1649q0 34 40 69t93 35q43 0 98 -26.5t84 -26.5q20 0 41 13t32 27l11 13l51 -29q0 -34 -40 -71t-93 -37q-45 0 -99 26.5t-83 26.5q-21 0 -42 -13.5t-32 -26.5l-10 -13z" />
<glyph unicode="&#xc4;" horiz-adv-x="1191" d="M31 0l565 1432l565 -1432h-110l-127 322h-656l-127 -322h-110zM301 412h590l-295 780zM387 1589v174h102v-174h-102zM702 1589v174h103v-174h-103z" />
<glyph unicode="&#xc5;" horiz-adv-x="1191" d="M31 0l565 1432l565 -1432h-110l-127 322h-656l-127 -322h-110zM301 412h590l-295 780zM397 1700q0 82 58 137t141 55t141 -55t58 -137q0 -81 -58 -136t-141 -55t-141 55t-58 136zM475 1700q0 -50 35 -84.5t86 -34.5t86 34.5t35 84.5q0 51 -35 86t-86 35t-86 -35t-35 -86z " />
<glyph unicode="&#xc6;" horiz-adv-x="1878" d="M10 0l989 1397h799v-92h-670v-551h570v-92h-570v-570h689v-92h-793v319h-672l-225 -319h-117zM416 412h608v862z" />
<glyph unicode="&#xc7;" horiz-adv-x="1196" d="M82 700q0 198 94.5 362.5t259 259.5t361.5 95q79 0 153.5 -12.5t109.5 -25.5l34 -13v-109q-14 7 -39 17.5t-103.5 28.5t-158.5 18q-162 0 -301.5 -80.5t-222.5 -223.5t-83 -315q0 -135 47 -253t126.5 -199t185.5 -127.5t223 -46.5q59 0 117.5 10t99.5 24t74 28t49 24 l16 10v-113q-14 -8 -39.5 -19t-105 -32.5t-160.5 -25.5l-16 -70q5 -1 13.5 -3t29.5 -12t37 -23t29.5 -37.5t13.5 -55.5q0 -72 -51 -110t-117 -38q-31 0 -57.5 6t-36.5 11l-11 6v80q35 -25 82 -25q34 0 63 18.5t29 53.5q0 33 -33.5 53.5t-66.5 24.5l-33 4l33 117 q-180 9 -327 101.5t-232.5 254t-85.5 362.5z" />
<glyph unicode="&#xc8;" horiz-adv-x="1067" d="M174 0v1397h815v-92h-713v-551h594v-92h-594v-570h730v-92h-832zM414 1706l49 96l313 -178l-35 -70z" />
<glyph unicode="&#xc9;" horiz-adv-x="1067" d="M174 0v1397h815v-92h-713v-551h594v-92h-594v-570h730v-92h-832zM418 1624l313 178l49 -96l-327 -152z" />
<glyph unicode="&#xca;" horiz-adv-x="1067" d="M174 0v1397h815v-92h-713v-551h594v-92h-594v-570h730v-92h-832zM369 1636l223 144l223 -144l-37 -65l-186 98l-186 -98z" />
<glyph unicode="&#xcb;" horiz-adv-x="1067" d="M174 0v1397h815v-92h-713v-551h594v-92h-594v-570h730v-92h-832zM385 1589v174h102v-174h-102zM700 1589v174h103v-174h-103z" />
<glyph unicode="&#xcc;" horiz-adv-x="452" d="M45 1706l49 96l314 -178l-35 -70zM174 0v1397h105v-1397h-105z" />
<glyph unicode="&#xcd;" horiz-adv-x="452" d="M45 1624l313 178l50 -96l-328 -152zM174 0v1397h105v-1397h-105z" />
<glyph unicode="&#xce;" horiz-adv-x="452" d="M2 1636l223 144l224 -144l-37 -65l-187 98l-186 -98zM174 0v1397h105v-1397h-105z" />
<glyph unicode="&#xcf;" horiz-adv-x="452" d="M16 1589v174h103v-174h-103zM174 0v1397h105v-1397h-105zM332 1589v174h102v-174h-102z" />
<glyph unicode="&#xd0;" horiz-adv-x="1312" d="M70 664v90h127v643h295q173 0 313.5 -52t233 -144.5t142.5 -221t50 -281.5q0 -151 -50 -279t-142.5 -221t-233 -145.5t-313.5 -52.5h-295v664h-127zM303 92h197q297 0 460.5 166.5t163.5 439.5q0 275 -163 441t-461 166h-197v-551h285v-90h-285v-572z" />
<glyph unicode="&#xd1;" horiz-adv-x="1372" d="M174 0v1421l922 -1161v1137h102v-1422l-922 1162v-1137h-102zM461 1649q0 34 40 69t93 35q43 0 98 -26.5t84 -26.5q20 0 41 13t32 27l11 13l51 -29q0 -34 -40 -71t-93 -37q-45 0 -99 26.5t-83 26.5q-21 0 -42 -13.5t-32 -26.5l-10 -13z" />
<glyph unicode="&#xd2;" horiz-adv-x="1601" d="M82 698q0 146 57 279.5t153 229.5t229.5 153t279.5 57t279.5 -57t229.5 -153t153 -229.5t57 -279.5t-57 -279t-153 -229t-229.5 -153t-279.5 -57t-279.5 57t-229.5 153t-153 229t-57 279zM184 698q0 -125 49 -240.5t131.5 -199.5t197 -134t239.5 -50q167 0 309 84.5 t224.5 228.5t82.5 311t-82.5 310.5t-224.5 228t-309 84.5t-309.5 -84.5t-225 -228t-82.5 -310.5zM618 1706l50 96l313 -178l-35 -70z" />
<glyph unicode="&#xd3;" horiz-adv-x="1601" d="M82 698q0 146 57 279.5t153 229.5t229.5 153t279.5 57t279.5 -57t229.5 -153t153 -229.5t57 -279.5t-57 -279t-153 -229t-229.5 -153t-279.5 -57t-279.5 57t-229.5 153t-153 229t-57 279zM184 698q0 -125 49 -240.5t131.5 -199.5t197 -134t239.5 -50q167 0 309 84.5 t224.5 228.5t82.5 311t-82.5 310.5t-224.5 228t-309 84.5t-309.5 -84.5t-225 -228t-82.5 -310.5zM618 1624l314 178l49 -96l-328 -152z" />
<glyph unicode="&#xd4;" horiz-adv-x="1601" d="M82 698q0 146 57 279.5t153 229.5t229.5 153t279.5 57t279.5 -57t229.5 -153t153 -229.5t57 -279.5t-57 -279t-153 -229t-229.5 -153t-279.5 -57t-279.5 57t-229.5 153t-153 229t-57 279zM184 698q0 -125 49 -240.5t131.5 -199.5t197 -134t239.5 -50q167 0 309 84.5 t224.5 228.5t82.5 311t-82.5 310.5t-224.5 228t-309 84.5t-309.5 -84.5t-225 -228t-82.5 -310.5zM578 1636l223 144l223 -144l-37 -65l-186 98l-187 -98z" />
<glyph unicode="&#xd5;" horiz-adv-x="1601" d="M82 698q0 146 57 279.5t153 229.5t229.5 153t279.5 57t279.5 -57t229.5 -153t153 -229.5t57 -279.5t-57 -279t-153 -229t-229.5 -153t-279.5 -57t-279.5 57t-229.5 153t-153 229t-57 279zM184 698q0 -125 49 -240.5t131.5 -199.5t197 -134t239.5 -50q167 0 309 84.5 t224.5 228.5t82.5 311t-82.5 310.5t-224.5 228t-309 84.5t-309.5 -84.5t-225 -228t-82.5 -310.5zM575 1649q0 34 40.5 69t93.5 35q43 0 98 -26.5t84 -26.5q20 0 41 13t32 27l11 13l51 -29q0 -34 -40 -71t-93 -37q-45 0 -99 26.5t-83 26.5q-21 0 -42 -13.5t-31 -26.5l-11 -13 z" />
<glyph unicode="&#xd6;" horiz-adv-x="1601" d="M82 698q0 146 57 279.5t153 229.5t229.5 153t279.5 57t279.5 -57t229.5 -153t153 -229.5t57 -279.5t-57 -279t-153 -229t-229.5 -153t-279.5 -57t-279.5 57t-229.5 153t-153 229t-57 279zM184 698q0 -125 49 -240.5t131.5 -199.5t197 -134t239.5 -50q167 0 309 84.5 t224.5 228.5t82.5 311t-82.5 310.5t-224.5 228t-309 84.5t-309.5 -84.5t-225 -228t-82.5 -310.5zM592 1589v174h102v-174h-102zM907 1589v174h103v-174h-103z" />
<glyph unicode="&#xd7;" d="M186 350l314 314l-312 311l62 61l311 -311l318 315l61 -61l-315 -315l313 -314l-64 -61l-313 311l-311 -311z" />
<glyph unicode="&#xd8;" horiz-adv-x="1619" d="M82 698q0 146 57 279.5t153 229.5t229.5 153t279.5 57q219 0 403 -125l117 148l76 -60l-117 -147q113 -100 176.5 -239t63.5 -296q0 -146 -57 -279t-153 -229t-229.5 -153t-279.5 -57q-228 0 -406 124l-114 -145l-74 59l112 146q-111 100 -174 238.5t-63 295.5zM184 698 q0 -131 52 -249.5t145 -206.5l762 972q-154 107 -342 107q-167 0 -309.5 -84.5t-225 -228t-82.5 -310.5zM455 182q151 -108 346 -108q167 0 309 84.5t224.5 228.5t82.5 311q0 132 -52 249.5t-146 205.5z" />
<glyph unicode="&#xd9;" horiz-adv-x="1325" d="M147 487v910h103v-905q0 -191 119 -304.5t295 -113.5q114 0 206.5 49t148.5 145.5t56 223.5v905h103v-910q0 -148 -70.5 -265.5t-187 -179.5t-256.5 -62q-104 0 -198.5 37t-165 102t-112 160.5t-41.5 207.5zM481 1706l49 96l314 -178l-35 -70z" />
<glyph unicode="&#xda;" horiz-adv-x="1325" d="M147 487v910h103v-905q0 -191 119 -304.5t295 -113.5q114 0 206.5 49t148.5 145.5t56 223.5v905h103v-910q0 -148 -70.5 -265.5t-187 -179.5t-256.5 -62q-104 0 -198.5 37t-165 102t-112 160.5t-41.5 207.5zM481 1624l314 178l49 -96l-328 -152z" />
<glyph unicode="&#xdb;" horiz-adv-x="1325" d="M147 487v910h103v-905q0 -191 119 -304.5t295 -113.5q114 0 206.5 49t148.5 145.5t56 223.5v905h103v-910q0 -148 -70.5 -265.5t-187 -179.5t-256.5 -62q-104 0 -198.5 37t-165 102t-112 160.5t-41.5 207.5zM438 1636l224 144l223 -144l-37 -65l-186 98l-187 -98z" />
<glyph unicode="&#xdc;" horiz-adv-x="1325" d="M147 487v910h103v-905q0 -191 119 -304.5t295 -113.5q114 0 206.5 49t148.5 145.5t56 223.5v905h103v-910q0 -148 -70.5 -265.5t-187 -179.5t-256.5 -62q-104 0 -198.5 37t-165 102t-112 160.5t-41.5 207.5zM453 1589v174h102v-174h-102zM768 1589v174h102v-174h-102z " />
<glyph unicode="&#xdd;" horiz-adv-x="1103" d="M20 1397h113l420 -752l418 752h112l-481 -838v-559h-100v559zM371 1624l313 178l49 -96l-327 -152z" />
<glyph unicode="&#xde;" horiz-adv-x="1120" d="M174 0v1397h100v-211h344q108 0 193.5 -36.5t135.5 -96.5t76 -130.5t26 -144.5q0 -75 -26 -145.5t-76.5 -130t-136 -95.5t-194.5 -36h-342v-371h-100zM274 463h347q153 0 239 89t86 224q0 138 -85.5 228t-239.5 90h-347v-631z" />
<glyph unicode="&#xdf;" horiz-adv-x="1067" d="M51 897v82h125v170q0 139 92 239.5t244 100.5q139 0 236.5 -94t97.5 -217q0 -58 -17 -104t-43 -72.5t-56 -52.5t-56 -46t-43 -50.5t-17 -68.5q0 -47 22.5 -85t59 -65.5t80.5 -54t88 -55.5t80.5 -62.5t59 -84.5t22.5 -113q0 -55 -23.5 -105t-69 -90.5t-120 -64.5 t-168.5 -24q-54 0 -107.5 9t-80.5 18l-27 9v95q94 -45 211 -45q72 0 132 17.5t103.5 62.5t43.5 112q0 48 -22.5 87t-58.5 67.5t-79.5 55t-87 56t-79.5 63t-58.5 84t-22.5 111.5q0 59 24.5 103t59 72t69 55.5t59 68.5t24.5 95q0 100 -67.5 162.5t-168.5 62.5q-104 0 -170 -63 t-66 -185v-1153h-100v897h-125z" />
<glyph unicode="&#xe0;" horiz-adv-x="1179" d="M82 489q0 141 63.5 258t176.5 184.5t251 67.5q69 0 130.5 -17.5t100.5 -42.5t68 -50t42 -43l12 -17l6 150h94v-979h-94l-6 152q-4 -7 -13 -18.5t-40.5 -41t-69 -52.5t-99.5 -41.5t-131 -18.5q-138 0 -250.5 66t-176.5 183t-64 260zM184 489q0 -179 115 -302.5t279 -123.5 q71 0 132.5 23t99.5 56t65.5 66t38.5 56l12 23v401q-4 9 -12 24.5t-38 54.5t-66.5 69t-98.5 54.5t-133 24.5q-164 0 -279 -123t-115 -303zM408 1288l49 96l313 -178l-35 -69z" />
<glyph unicode="&#xe1;" horiz-adv-x="1179" d="M82 489q0 141 63.5 258t176.5 184.5t251 67.5q69 0 130.5 -17.5t100.5 -42.5t68 -50t42 -43l12 -17l6 150h94v-979h-94l-6 152q-4 -7 -13 -18.5t-40.5 -41t-69 -52.5t-99.5 -41.5t-131 -18.5q-138 0 -250.5 66t-176.5 183t-64 260zM184 489q0 -179 115 -302.5t279 -123.5 q71 0 132.5 23t99.5 56t65.5 66t38.5 56l12 23v401q-4 9 -12 24.5t-38 54.5t-66.5 69t-98.5 54.5t-133 24.5q-164 0 -279 -123t-115 -303zM408 1206l313 178l49 -96l-328 -151z" />
<glyph unicode="&#xe2;" horiz-adv-x="1179" d="M82 489q0 141 63.5 258t176.5 184.5t251 67.5q69 0 130.5 -17.5t100.5 -42.5t68 -50t42 -43l12 -17l6 150h94v-979h-94l-6 152q-4 -7 -13 -18.5t-40.5 -41t-69 -52.5t-99.5 -41.5t-131 -18.5q-138 0 -250.5 66t-176.5 183t-64 260zM184 489q0 -179 115 -302.5t279 -123.5 q71 0 132.5 23t99.5 56t65.5 66t38.5 56l12 23v401q-4 9 -12 24.5t-38 54.5t-66.5 69t-98.5 54.5t-133 24.5q-164 0 -279 -123t-115 -303zM367 1219l223 143l223 -143l-37 -66l-186 98l-187 -98z" />
<glyph unicode="&#xe3;" horiz-adv-x="1179" d="M82 489q0 141 63.5 258t176.5 184.5t251 67.5q69 0 130.5 -17.5t100.5 -42.5t68 -50t42 -43l12 -17l6 150h94v-979h-94l-6 152q-4 -7 -13 -18.5t-40.5 -41t-69 -52.5t-99.5 -41.5t-131 -18.5q-138 0 -250.5 66t-176.5 183t-64 260zM184 489q0 -179 115 -302.5t279 -123.5 q71 0 132.5 23t99.5 56t65.5 66t38.5 56l12 23v401q-4 9 -12 24.5t-38 54.5t-66.5 69t-98.5 54.5t-133 24.5q-164 0 -279 -123t-115 -303zM365 1231q0 34 40 69t93 35q43 0 98 -26.5t84 -26.5q20 0 41 13t32 27l11 13l51 -28q0 -34 -40 -71.5t-93 -37.5q-45 0 -99 26.5 t-83 26.5q-21 0 -42 -13.5t-32 -26.5l-10 -13z" />
<glyph unicode="&#xe4;" horiz-adv-x="1179" d="M82 489q0 141 63.5 258t176.5 184.5t251 67.5q69 0 130.5 -17.5t100.5 -42.5t68 -50t42 -43l12 -17l6 150h94v-979h-94l-6 152q-4 -7 -13 -18.5t-40.5 -41t-69 -52.5t-99.5 -41.5t-131 -18.5q-138 0 -250.5 66t-176.5 183t-64 260zM184 489q0 -179 115 -302.5t279 -123.5 q71 0 132.5 23t99.5 56t65.5 66t38.5 56l12 23v401q-4 9 -12 24.5t-38 54.5t-66.5 69t-98.5 54.5t-133 24.5q-164 0 -279 -123t-115 -303zM381 1171v175h102v-175h-102zM696 1171v175h103v-175h-103z" />
<glyph unicode="&#xe5;" horiz-adv-x="1179" d="M82 489q0 141 63.5 258t176.5 184.5t251 67.5q69 0 130.5 -17.5t100.5 -42.5t68 -50t42 -43l12 -17l6 150h94v-979h-94l-6 152q-4 -7 -13 -18.5t-40.5 -41t-69 -52.5t-99.5 -41.5t-131 -18.5q-138 0 -250.5 66t-176.5 183t-64 260zM184 489q0 -179 115 -302.5t279 -123.5 q71 0 132.5 23t99.5 56t65.5 66t38.5 56l12 23v401q-4 9 -12 24.5t-38 54.5t-66.5 69t-98.5 54.5t-133 24.5q-164 0 -279 -123t-115 -303zM391 1282q0 82 58 137.5t141 55.5t140.5 -55.5t57.5 -137.5q0 -81 -57.5 -135.5t-140.5 -54.5t-141 54.5t-58 135.5zM469 1282 q0 -50 35 -84.5t86 -34.5t86 34.5t35 84.5q0 51 -35 86t-86 35t-86 -35t-35 -86z" />
<glyph unicode="&#xe6;" horiz-adv-x="1861" d="M82 489q0 139 59.5 256t166 185.5t235.5 68.5q72 0 134.5 -18.5t101 -45.5t67 -54t40.5 -45l11 -19l6 162h92l6 -168q5 8 15 20.5t45 45t74.5 57t104.5 45t134 20.5q88 0 161 -30t121 -78t81.5 -111t48 -127t14.5 -127l-2 -84h-801q6 -161 116.5 -268.5t279.5 -107.5 q68 0 142 23t113 46l40 23v-99q-15 -9 -41.5 -22t-107 -35t-159.5 -22t-147.5 19t-110 46.5t-71.5 55t-42 46.5l-12 19v-166h-94l-6 166q-4 -8 -12 -20.5t-39 -44.5t-68 -56.5t-100 -44.5t-135 -20q-195 0 -328 148.5t-133 360.5zM184 489q0 -174 108 -300t263 -126 q76 0 143 32t107.5 76.5t63.5 81.5t28 58v353q-5 22 -28 60t-63.5 82.5t-107.5 76.5t-143 32q-155 0 -263 -125.5t-108 -300.5zM997 526h703q0 105 -36.5 191.5t-112 141t-177.5 54.5q-104 0 -192 -55t-136.5 -144t-48.5 -188z" />
<glyph unicode="&#xe7;" horiz-adv-x="897" d="M82 489q0 138 67 255.5t183 186t254 68.5q59 0 111.5 -8.5t74.5 -16.5l23 -9l-2 -97q-9 5 -26.5 12.5t-71.5 20t-109 12.5q-163 0 -281.5 -125t-118.5 -299q0 -177 117.5 -300t278.5 -123q62 0 120 13t86 27l27 13v-94q-78 -39 -215 -45l-16 -68q5 -1 13.5 -3.5 t29.5 -12.5t37 -23t29.5 -37.5t13.5 -54.5q0 -72 -51 -110t-117 -38q-31 0 -57.5 6t-37.5 11l-10 6v80q39 -25 86 -25q34 0 61 18.5t27 53.5q0 33 -33 53.5t-67 24.5l-33 4l33 121q-181 24 -303.5 166.5t-122.5 336.5z" />
<glyph unicode="&#xe8;" horiz-adv-x="1073" d="M82 492q0 138 65 254.5t179 184.5t249 68q109 0 196 -45t137.5 -116t77 -151.5t26.5 -160.5l-2 -84h-824q9 -159 124.5 -270t283.5 -111q68 0 144.5 24.5t118.5 48.5l42 24v-99q-16 -9 -44 -22t-111 -35t-162 -22q-145 0 -260 68t-177.5 184.5t-62.5 259.5zM186 524h729 q0 161 -94 277.5t-246 116.5q-104 0 -193.5 -58t-140.5 -148t-55 -188zM395 1288l49 96l314 -178l-35 -69z" />
<glyph unicode="&#xe9;" horiz-adv-x="1073" d="M82 492q0 138 65 254.5t179 184.5t249 68q109 0 196 -45t137.5 -116t77 -151.5t26.5 -160.5l-2 -84h-824q9 -159 124.5 -270t283.5 -111q68 0 144.5 24.5t118.5 48.5l42 24v-99q-16 -9 -44 -22t-111 -35t-162 -22q-145 0 -260 68t-177.5 184.5t-62.5 259.5zM186 524h729 q0 161 -94 277.5t-246 116.5q-104 0 -193.5 -58t-140.5 -148t-55 -188zM393 1206l314 178l49 -96l-328 -151z" />
<glyph unicode="&#xea;" horiz-adv-x="1073" d="M82 492q0 138 65 254.5t179 184.5t249 68q109 0 196 -45t137.5 -116t77 -151.5t26.5 -160.5l-2 -84h-824q9 -159 124.5 -270t283.5 -111q68 0 144.5 24.5t118.5 48.5l42 24v-99q-16 -9 -44 -22t-111 -35t-162 -22q-145 0 -260 68t-177.5 184.5t-62.5 259.5zM186 524h729 q0 161 -94 277.5t-246 116.5q-104 0 -193.5 -58t-140.5 -148t-55 -188zM350 1219l223 143l224 -143l-37 -66l-187 98l-186 -98z" />
<glyph unicode="&#xeb;" horiz-adv-x="1073" d="M82 492q0 138 65 254.5t179 184.5t249 68q109 0 196 -45t137.5 -116t77 -151.5t26.5 -160.5l-2 -84h-824q9 -159 124.5 -270t283.5 -111q68 0 144.5 24.5t118.5 48.5l42 24v-99q-16 -9 -44 -22t-111 -35t-162 -22q-145 0 -260 68t-177.5 184.5t-62.5 259.5zM186 524h729 q0 161 -94 277.5t-246 116.5q-104 0 -193.5 -58t-140.5 -148t-55 -188zM371 1171v175h102v-175h-102zM686 1171v175h102v-175h-102z" />
<glyph unicode="&#xec;" horiz-adv-x="417" d="M27 1288l49 96l313 -178l-35 -69zM158 0v979h102v-979h-102z" />
<glyph unicode="&#xed;" horiz-adv-x="417" d="M27 1206l313 178l49 -96l-328 -151zM158 0v979h102v-979h-102z" />
<glyph unicode="&#xee;" horiz-adv-x="417" d="M-14 1219l223 143l223 -143l-37 -66l-186 98l-186 -98zM158 0v979h102v-979h-102z" />
<glyph unicode="&#xef;" horiz-adv-x="417" d="M0 1171v175h102v-175h-102zM158 0v979h102v-979h-102zM315 1171v175h103v-175h-103z" />
<glyph unicode="&#xf0;" horiz-adv-x="1110" d="M82 457q0 99 38 188t101 151.5t147.5 99t174.5 36.5q215 0 340 -144q-23 117 -85.5 223t-142.5 183l-155 -135l-58 67l146 125q-67 56 -157 88.5t-177 32.5l-4 92q226 0 416 -145l135 119l57 -66l-127 -110q129 -128 203 -312.5t74 -410.5q0 -141 -37.5 -250.5 t-103 -175.5t-147.5 -99.5t-177 -33.5q-134 0 -240 63.5t-163.5 172.5t-57.5 241zM180 457q0 -105 44.5 -195t128.5 -145.5t190 -55.5q158 0 262 121.5t104 335.5q0 39 -2.5 75t-4.5 53l-3 16q-5 8 -14 20.5t-42 44.5t-71 56.5t-100 44.5t-129 20q-105 0 -189 -54 t-129 -143.5t-45 -193.5z" />
<glyph unicode="&#xf1;" horiz-adv-x="1140" d="M154 0v979h94l6 -164q5 7 15 19.5t44.5 44.5t74 56t103.5 44t132 20q164 0 274.5 -99t110.5 -277v-623h-101v598q0 152 -82 233.5t-207 81.5q-49 0 -95 -12.5t-81.5 -33t-66.5 -45t-52.5 -48.5t-37.5 -44.5t-23 -33.5l-8 -12v-684h-100zM365 1231q0 34 40 69t93 35 q43 0 98 -26.5t84 -26.5q20 0 41 13t32 27l11 13l51 -28q0 -34 -40 -71.5t-93 -37.5q-45 0 -99 26.5t-83 26.5q-21 0 -42 -13.5t-32 -26.5l-10 -13z" />
<glyph unicode="&#xf2;" horiz-adv-x="1171" d="M82 489q0 138 67 255.5t183 186t254 68.5t254 -68.5t183 -186t67 -255.5q0 -211 -147 -360t-357 -149t-357 149t-147 360zM182 489q0 -177 118.5 -302.5t285.5 -125.5t285 125.5t118 302.5t-118 303t-285 126t-285.5 -126t-118.5 -303zM403 1288l50 96l313 -178l-35 -69z " />
<glyph unicode="&#xf3;" horiz-adv-x="1171" d="M82 489q0 138 67 255.5t183 186t254 68.5t254 -68.5t183 -186t67 -255.5q0 -211 -147 -360t-357 -149t-357 149t-147 360zM182 489q0 -177 118.5 -302.5t285.5 -125.5t285 125.5t118 302.5t-118 303t-285 126t-285.5 -126t-118.5 -303zM403 1206l314 178l49 -96 l-328 -151z" />
<glyph unicode="&#xf4;" horiz-adv-x="1171" d="M82 489q0 138 67 255.5t183 186t254 68.5t254 -68.5t183 -186t67 -255.5q0 -211 -147 -360t-357 -149t-357 149t-147 360zM182 489q0 -177 118.5 -302.5t285.5 -125.5t285 125.5t118 302.5t-118 303t-285 126t-285.5 -126t-118.5 -303zM362 1219l224 143l223 -143 l-37 -66l-186 98l-187 -98z" />
<glyph unicode="&#xf5;" horiz-adv-x="1171" d="M82 489q0 138 67 255.5t183 186t254 68.5t254 -68.5t183 -186t67 -255.5q0 -211 -147 -360t-357 -149t-357 149t-147 360zM182 489q0 -177 118.5 -302.5t285.5 -125.5t285 125.5t118 302.5t-118 303t-285 126t-285.5 -126t-118.5 -303zM360 1231q0 34 40.5 69t93.5 35 q43 0 98 -26.5t84 -26.5q20 0 41 13t32 27l11 13l51 -28q0 -34 -40 -71.5t-93 -37.5q-45 0 -99 26.5t-83 26.5q-21 0 -42 -13.5t-32 -26.5l-10 -13z" />
<glyph unicode="&#xf6;" horiz-adv-x="1171" d="M82 489q0 138 67 255.5t183 186t254 68.5t254 -68.5t183 -186t67 -255.5q0 -211 -147 -360t-357 -149t-357 149t-147 360zM182 489q0 -177 118.5 -302.5t285.5 -125.5t285 125.5t118 302.5t-118 303t-285 126t-285.5 -126t-118.5 -303zM377 1171v175h102v-175h-102z M692 1171v175h103v-175h-103z" />
<glyph unicode="&#xf7;" d="M123 621v88h881v-88h-881zM498 256v131h129v-131h-129zM498 942v133h129v-133h-129z" />
<glyph unicode="&#xf8;" horiz-adv-x="1171" d="M82 489q0 138 67 255.5t183 186t254 68.5q160 0 286 -90l97 117l67 -55l-96 -119q70 -70 110 -164.5t40 -198.5q0 -211 -147 -360t-357 -149q-157 0 -285 88l-96 -117l-68 55l96 117q-72 72 -111.5 166t-39.5 200zM182 489q0 -169 109 -294l526 645q-105 78 -231 78 q-167 0 -285.5 -126t-118.5 -303zM356 137q107 -76 230 -76q167 0 285 125.5t118 302.5q0 167 -108 291z" />
<glyph unicode="&#xf9;" horiz-adv-x="1140" d="M133 356v623h100v-598q0 -153 76.5 -234t200.5 -81q67 0 130 23.5t106 57.5t76.5 67.5t49.5 57.5l15 23v684h100v-979h-94l-6 168q-6 -8 -16.5 -20.5t-47.5 -45t-78 -57t-106 -45t-133 -20.5q-163 0 -268 98.5t-105 277.5zM389 1288l49 96l314 -178l-35 -69z" />
<glyph unicode="&#xfa;" horiz-adv-x="1140" d="M133 356v623h100v-598q0 -153 76.5 -234t200.5 -81q67 0 130 23.5t106 57.5t76.5 67.5t49.5 57.5l15 23v684h100v-979h-94l-6 168q-6 -8 -16.5 -20.5t-47.5 -45t-78 -57t-106 -45t-133 -20.5q-163 0 -268 98.5t-105 277.5zM389 1206l313 178l50 -96l-328 -151z" />
<glyph unicode="&#xfb;" horiz-adv-x="1140" d="M133 356v623h100v-598q0 -153 76.5 -234t200.5 -81q67 0 130 23.5t106 57.5t76.5 67.5t49.5 57.5l15 23v684h100v-979h-94l-6 168q-6 -8 -16.5 -20.5t-47.5 -45t-78 -57t-106 -45t-133 -20.5q-163 0 -268 98.5t-105 277.5zM346 1219l223 143l224 -143l-37 -66l-187 98 l-186 -98z" />
<glyph unicode="&#xfc;" horiz-adv-x="1140" d="M133 356v623h100v-598q0 -153 76.5 -234t200.5 -81q67 0 130 23.5t106 57.5t76.5 67.5t49.5 57.5l15 23v684h100v-979h-94l-6 168q-6 -8 -16.5 -20.5t-47.5 -45t-78 -57t-106 -45t-133 -20.5q-163 0 -268 98.5t-105 277.5zM360 1171v175h103v-175h-103zM676 1171v175h102 v-175h-102z" />
<glyph unicode="&#xfd;" horiz-adv-x="980" d="M20 979h105l371 -836l356 836h109l-611 -1389h-100l194 445zM309 1206l314 178l49 -96l-328 -151z" />
<glyph unicode="&#xfe;" horiz-adv-x="1150" d="M154 -410v1885h100v-662q4 8 12.5 20.5t40 44.5t69 56.5t100.5 44.5t134 20q197 0 328 -148.5t131 -361.5q0 -139 -58 -255.5t-163 -185t-234 -68.5q-70 0 -133 18.5t-102.5 45.5t-69 54t-42.5 46l-13 18v-572h-100zM254 315q3 -16 18.5 -44t46 -64.5t69 -68t95.5 -53.5 t119 -22q102 0 186.5 58t131.5 155.5t47 212.5q0 114 -47 211.5t-131.5 156t-186.5 58.5q-62 0 -119 -21.5t-95.5 -53t-69 -67.5t-45.5 -63t-19 -42v-353z" />
<glyph unicode="&#xff;" horiz-adv-x="980" d="M20 979h105l371 -836l356 836h109l-611 -1389h-100l194 445zM281 1171v175h102v-175h-102zM596 1171v175h102v-175h-102z" />
<glyph unicode="&#x152;" horiz-adv-x="2025" d="M82 700q0 149 52 281t142 228t218.5 152t275.5 56q60 0 119.5 -11.5t101.5 -28.5t75.5 -34t49.5 -29l17 -11v94h815v-92h-713v-551h594v-92h-594v-570h729v-92h-831v94q-6 -5 -17 -12.5t-47.5 -27t-76 -34.5t-100.5 -27.5t-122 -12.5q-196 0 -354 96t-246 260.5 t-88 363.5zM184 698q0 -173 75.5 -316t210 -225.5t300.5 -82.5q62 0 122.5 14.5t102 35t74 40.5t48.5 34l16 15v971q-6 6 -17 15t-47.5 32.5t-76 41.5t-100.5 33t-122 15q-125 0 -234 -47t-186 -129t-121.5 -198t-44.5 -249z" />
<glyph unicode="&#x153;" horiz-adv-x="1914" d="M82 489q0 142 62.5 258.5t174.5 184t250 67.5q145 0 261 -76.5t176 -203.5q59 128 171.5 204t256.5 76q88 0 160.5 -30t119.5 -78t79 -111t46 -126.5t14 -127.5l-2 -84h-790q9 -161 116.5 -271t274.5 -110q68 0 140.5 24.5t110.5 48.5l38 24v-99q-14 -9 -39 -22t-104 -35 t-158 -22q-153 0 -266 74t-170 202q-60 -126 -175 -201t-260 -75q-210 0 -348.5 146.5t-138.5 362.5zM182 489q0 -179 110.5 -303.5t276.5 -124.5q162 0 274.5 126t112.5 305q0 177 -111.5 301.5t-275.5 124.5q-109 0 -198.5 -58t-139 -156t-49.5 -215zM1061 524h696 q0 105 -36 193t-111 144.5t-176 56.5q-78 0 -147.5 -34t-117 -90t-76.5 -126.5t-32 -143.5z" />
<glyph unicode="&#x178;" horiz-adv-x="1103" d="M20 1397h113l420 -752l418 752h112l-481 -838v-559h-100v559zM342 1589v174h102v-174h-102zM657 1589v174h103v-174h-103z" />
<glyph unicode="&#x2c6;" horiz-adv-x="446" d="M0 1219l223 143l223 -143l-36 -66l-187 98l-186 -98z" />
<glyph unicode="&#x2dc;" horiz-adv-x="450" d="M0 1231q0 34 40 69t93 35q43 0 98 -26.5t84 -26.5q20 0 41 13t32 27l11 13l52 -28q0 -34 -40.5 -71.5t-93.5 -37.5q-45 0 -99 26.5t-83 26.5q-21 0 -42 -13.5t-31 -26.5l-11 -13z" />
<glyph unicode="&#x2000;" horiz-adv-x="946" />
<glyph unicode="&#x2001;" horiz-adv-x="1892" />
<glyph unicode="&#x2002;" horiz-adv-x="946" />
<glyph unicode="&#x2003;" horiz-adv-x="1892" />
<glyph unicode="&#x2004;" horiz-adv-x="630" />
<glyph unicode="&#x2005;" horiz-adv-x="473" />
<glyph unicode="&#x2006;" horiz-adv-x="315" />
<glyph unicode="&#x2007;" horiz-adv-x="315" />
<glyph unicode="&#x2008;" horiz-adv-x="236" />
<glyph unicode="&#x2009;" horiz-adv-x="378" />
<glyph unicode="&#x200a;" horiz-adv-x="105" />
<glyph unicode="&#x2010;" horiz-adv-x="712" d="M123 516v86h467v-86h-467z" />
<glyph unicode="&#x2011;" horiz-adv-x="712" d="M123 516v86h467v-86h-467z" />
<glyph unicode="&#x2012;" horiz-adv-x="712" d="M123 516v86h467v-86h-467z" />
<glyph unicode="&#x2013;" horiz-adv-x="970" d="M0 516v86h971v-86h-971z" />
<glyph unicode="&#x2014;" horiz-adv-x="1941" d="M0 516v86h1942v-86h-1942z" />
<glyph unicode="&#x2018;" horiz-adv-x="282" d="M41 1169v150l104 178l45 -24l-69 -156v-10h57v-138h-137z" />
<glyph unicode="&#x2019;" horiz-adv-x="282" d="M92 1171l70 156v10h-58v138h138v-150l-105 -178z" />
<glyph unicode="&#x201a;" horiz-adv-x="374" d="M92 -166l70 156v10h-58v137h138v-149l-105 -178z" />
<glyph unicode="&#x201c;" horiz-adv-x="522" d="M41 1169v150l104 178l45 -24l-69 -156v-10h57v-138h-137zM281 1169v150l104 178l45 -24l-70 -156v-10h58v-138h-137z" />
<glyph unicode="&#x201d;" horiz-adv-x="522" d="M92 1171l70 156v10h-58v138h138v-150l-105 -178zM332 1171l69 156v10h-57v138h137v-150l-104 -178z" />
<glyph unicode="&#x201e;" horiz-adv-x="614" d="M92 -166l70 156v10h-58v137h138v-149l-105 -178zM332 -166l69 156v10h-57v137h137v-149l-104 -178z" />
<glyph unicode="&#x2022;" horiz-adv-x="860" d="M139 711q0 120 84 204t207 84q119 0 204 -85t85 -203q0 -120 -84.5 -205.5t-204.5 -85.5q-123 0 -207 84.5t-84 206.5z" />
<glyph unicode="&#x2026;" horiz-adv-x="1277" d="M143 0v141h140v-141h-140zM569 0v141h140v-141h-140zM995 0v141h140v-141h-140z" />
<glyph unicode="&#x202f;" horiz-adv-x="378" />
<glyph unicode="&#x2039;" horiz-adv-x="552" d="M82 481l285 432h104l-283 -432l283 -434h-104z" />
<glyph unicode="&#x203a;" horiz-adv-x="552" d="M82 47l283 434l-283 432h104l285 -432l-285 -434h-104z" />
<glyph unicode="&#x205f;" horiz-adv-x="473" />
<glyph unicode="&#x20ac;" d="M18 528l33 93h88q-2 27 -2 79t6 101h-125l33 92h109q59 228 231.5 375t390.5 147q73 0 135 -7.5t87 -15.5l26 -8v-104q-10 5 -28 11.5t-79 18t-126 11.5q-181 0 -328 -119.5t-201 -308.5h533v-92h-553q-6 -49 -6 -99q0 -54 4 -81h469v-93h-453q49 -199 190.5 -325.5 t311.5 -126.5q83 0 157.5 16t108.5 32l33 17v-104q-13 -6 -36.5 -15t-100.5 -24.5t-158 -15.5q-223 0 -392.5 153.5t-219.5 392.5h-138z" />
<glyph unicode="&#x2122;" horiz-adv-x="1595" d="M123 1311v86h522v-86h-217v-647h-90v647h-215zM735 664v733h105l233 -318l232 318h106v-733h-90v614l-248 -330l-250 330v-614h-88z" />
<glyph unicode="&#x25fc;" horiz-adv-x="983" d="M0 0v983h983v-983h-983z" />
<glyph unicode="&#xfb03;" horiz-adv-x="1474" d="M61 897v82h144v195q0 70 12 122.5t43.5 99.5t93.5 72t154 25v-82q-59 0 -100.5 -16.5t-63 -47.5t-30.5 -67.5t-9 -83.5v-217h428v195q0 70 12 122.5t43.5 99.5t93.5 72t154 25v-82q-59 0 -100 -16.5t-62.5 -47.5t-30.5 -67.5t-9 -83.5v-217h483v-979h-103v897h-380v-897 h-101v897h-428v-897h-100v897h-144zM1210 1169v179h111v-179h-111z" />
<glyph unicode="&#xfb04;" horiz-adv-x="1474" d="M61 897v82h144v195q0 70 12 122.5t43.5 99.5t93.5 72t154 25v-82q-59 0 -100.5 -16.5t-63 -47.5t-30.5 -67.5t-9 -83.5v-217h428v195q0 70 12 122.5t43.5 99.5t93.5 72t154 25q56 0 126.5 -4.5t112.5 -8.5l42 -5v-1475h-103v1401q-78 10 -178 10q-59 0 -100 -16.5 t-62.5 -47.5t-30.5 -67.5t-9 -83.5v-217h196v-82h-196v-897h-101v897h-428v-897h-100v897h-144z" />
</font>
</defs>
</svg>
